<svg viewBox="584 908 840 197" xmlns="http://www.w3.org/2000/svg">
  <path d="M0 0 C11.88 0 23.76 0 36 0 C36.33 18.15 36.66 36.3 37 55 C39.64 52.69 42.28 50.38 45 48 C58.24 39.84 70.84 38.27 86.13 41.13 C101.55 44.85 112.83 53.36 121.25 66.77 C128.68 80.48 130.15 94.29 130.25 109.56 C130.26 111.12 130.26 111.12 130.28 112.72 C130.2 130.84 125.27 148.92 112.68 162.5 C107.32 167.6 101.81 171.15 95 174 C94.2 174.35 93.4 174.7 92.58 175.07 C86.15 177.39 79.51 177.25 72.75 177.31 C71.76 177.34 70.78 177.37 69.76 177.4 C60.61 177.48 53.22 175.06 45.81 169.63 C45 169.03 44.18 168.43 43.34 167.82 C40.12 165.32 37.04 162.71 34 160 C33.01 164.95 32.02 169.9 31 175 C20.77 175 10.54 175 0 175 C0 117.25 0 59.5 0 0 Z" fill="#3AB7FF" transform="translate(594,918)"/>
  <path d="M0 0 C11.55 0 23.1 0 35 0 C35 57.75 35 115.5 35 175 C23.45 175 11.9 175 0 175 C0 117.25 0 59.5 0 0 Z" fill="#39B6FF" transform="translate(744,918)"/>
  <path d="M0 0 C11.09 9.24 17.19 20.65 20.74 34.56 C20.97 35.23 21.19 35.9 21.42 36.59 C24.4 45.89 22.92 57.12 21.74 66.56 C-8.29 66.56 -38.32 66.56 -69.26 66.56 C-64.4 81.28 -64.4 81.28 -53.26 90.56 C-49.36 91.86 -45.63 91.82 -41.57 91.87 C-40.79 91.9 -40.01 91.93 -39.21 91.96 C-33.39 92.02 -29.04 90.96 -24.26 87.56 C-23.33 86.38 -22.44 85.18 -21.58 83.95 C-19.86 81.9 -18.84 80.74 -16.26 79.94 C-13.93 79.75 -11.7 79.77 -9.36 79.88 C-8.11 79.89 -8.11 79.89 -6.83 79.91 C-4.18 79.94 -1.53 80.03 1.12 80.12 C2.92 80.16 4.72 80.19 6.53 80.22 C10.93 80.29 15.34 80.41 19.74 80.56 C15.6 95.12 8.86 107.48 -4.63 115.43 C-17.02 121.56 -27.57 123.77 -41.26 123.87 C-42.51 123.9 -43.76 123.93 -45.05 123.96 C-61.78 124.07 -75.91 118.34 -88.04 106.84 C-102.56 91.89 -106.7 72.65 -106.62 52.41 C-106.29 34.07 -100.63 15.73 -87.26 2.56 C-79.39 -3.96 -71.08 -8.43 -61.26 -11.44 C-60.46 -11.69 -59.67 -11.93 -58.85 -12.18 C-39.14 -17.11 -16 -12.45 0 0 Z" fill="#39B6FF" transform="translate(905.26,971.44)"/>
  <path d="M0 0 C100.36 0 100.36 0 118 16 C129.12 28.51 133.41 40.78 133.31 57.31 C133.31 58.33 133.3 59.35 133.3 60.39 C133.02 77.43 127.28 90.11 115 102 C103.59 112 103.59 112 98 112 C103.55 121.12 109.32 130.01 115.53 138.7 C119.26 143.93 122.86 149.23 126.4 154.59 C128.44 157.67 130.5 160.73 132.62 163.75 C133.04 164.35 133.46 164.95 133.9 165.57 C135.05 167.21 136.22 168.85 137.38 170.49 C139 173 139 173 139 175 C125.77 177.66 109.77 180.68 97 175 C84.93 166.02 77.74 150.27 70.87 137.26 C67.91 131.71 64.53 126.52 60.92 121.37 C58 117.18 58 117.18 58 115 C51.07 115 44.14 115 37 115 C37 134.8 37 154.6 37 175 C24.79 175 12.58 175 0 175 C0 117.25 0 59.5 0 0 Z" class="logo-dark" transform="translate(949,918)"/>
  <path d="M0 0 C98.66 0 98.66 0 117.38 17.18 C128.98 29.14 133.89 44.02 134.44 60.44 C134.03 77.71 127.43 93.09 115 105 C103.24 115.73 88.64 120.55 72.86 120.29 C71.97 120.29 71.08 120.29 70.16 120.28 C66.88 120.27 63.59 120.23 60.31 120.19 C52.95 120.13 45.59 120.06 38 120 C38 138.15 38 156.3 38 175 C25.46 175 12.92 175 0 175 C0 117.25 0 59.5 0 0 Z" class="logo-dark" transform="translate(1107,918)"/>
  <path d="M0 0 C11.96 10.12 20.97 23.4 25.06 38.63 C25.06 39.62 25.06 40.61 25.06 41.63 C19.64 41.9 14.22 42.1 8.78 42.23 C6.94 42.28 5.1 42.36 3.25 42.45 C-12.12 43.23 -12.12 43.23 -16.61 39.27 C-18.37 36.45 -19.62 33.66 -20.94 30.63 C-26.65 23.94 -33.62 20.24 -42.39 19.39 C-56.76 18.46 -68.02 19.36 -79.38 28.94 C-90.41 39.71 -94.95 54.57 -95.18 69.81 C-95.23 88.37 -92.98 105.36 -79.94 119.63 C-69.01 128.52 -56.76 130.81 -42.94 129.63 C-33.86 128.01 -25.91 123.7 -19.94 116.63 C-19.52 115.42 -19.52 115.42 -19.09 114.18 C-17.78 110.84 -16.67 109 -13.94 106.63 C-7.58 104.86 -0.58 105.69 5.94 106 C7.79 106.05 9.64 106.1 11.49 106.14 C16.02 106.25 20.54 106.42 25.06 106.63 C23.41 113.22 21.62 119.48 18.56 125.56 C18.22 126.24 17.88 126.91 17.54 127.61 C13.79 134.68 8.79 140.11 3.06 145.63 C2.22 146.51 2.22 146.51 1.37 147.41 C-14.51 162.96 -37.94 164.12 -58.65 163.9 C-76.44 163.44 -92.56 157.62 -105.94 145.63 C-107.08 144.61 -107.08 144.61 -108.24 143.57 C-120.62 131.87 -126.94 116.93 -130.94 100.63 C-131.12 99.94 -131.3 99.25 -131.48 98.54 C-133.35 90.53 -133.38 82.49 -133.38 74.31 C-133.38 73.19 -133.38 73.19 -133.38 72.04 C-133.3 48.06 -127.38 27.36 -111.94 8.63 C-111.16 7.68 -111.16 7.68 -110.37 6.71 C-103.19 -1.18 -92.04 -8.03 -81.94 -11.38 C-80.82 -11.74 -79.71 -12.11 -78.56 -12.5 C-52.12 -20.34 -22.33 -16.37 0 0 Z" class="logo-dark" transform="translate(1388.94,931.38)"/>
  <path d="M0 0 C5.88 -0.08 11.76 -0.17 17.81 -0.25 C20.56 -0.3 20.56 -0.3 23.36 -0.36 C33.63 -0.48 41.76 0.47 50.88 5.63 C57.4 12.92 58.99 20.56 58.48 30.14 C57.63 36.92 55.19 42.3 50.13 46.94 C43.42 51.36 38.46 52.44 30.57 52.29 C29.79 52.29 29.01 52.29 28.2 52.28 C25.32 52.27 22.44 52.23 19.56 52.19 C9.88 52.09 9.88 52.09 0 52 C0 34.84 0 17.68 0 0 Z" class="logo-cutout" transform="translate(1145,952)"/>
  <path d="M0 0 C6.58 -0.08 13.16 -0.17 19.94 -0.25 C23.03 -0.3 23.03 -0.3 26.18 -0.36 C27.83 -0.37 29.49 -0.38 31.15 -0.39 C31.99 -0.41 32.83 -0.43 33.7 -0.45 C41.13 -0.46 46.99 1.59 52.81 6.25 C58.62 13.55 60.02 19.65 59 29 C57.76 35.02 54.7 40.04 50 44 C47.41 45.36 44.83 46.26 42 47 C41.38 47.17 40.76 47.35 40.13 47.52 C36.56 48.32 32.93 48.12 29.3 48.1 C28.55 48.1 27.81 48.1 27.05 48.09 C24.28 48.09 21.52 48.08 18.75 48.06 C12.56 48.04 6.38 48.02 0 48 C0 32.16 0 16.32 0 0 Z" class="logo-cutout" transform="translate(986,952)"/>
  <path d="M0 0 C0.51 0.37 1.01 0.74 1.53 1.13 C2.42 1.7 3.31 2.28 4.22 2.88 C12.14 10.59 14.56 20.24 14.94 31.02 C15.08 42.02 13.96 53.42 6.53 62.13 C0.15 68.57 -5.26 71.27 -14.34 71.5 C-23.35 71.28 -30.01 69.73 -36.47 63.13 C-43.36 54.15 -45.03 44.95 -44.97 33.81 C-44.96 32.15 -44.96 32.15 -44.95 30.46 C-44.73 19.83 -42.58 11.45 -35.08 3.52 C-26.29 -4.11 -10.11 -6.38 0 0 Z" class="logo-cutout" transform="translate(674.47,992.88)"/>
  <path d="M0 0 C7.01 3.67 12.1 9.82 15.02 17.13 C15.02 18.45 15.02 19.77 15.02 21.13 C-3.13 21.13 -21.28 21.13 -39.98 21.13 C-38.74 13.69 -35.8 8.21 -29.84 3.41 C-21.3 -2.02 -9.73 -2.85 0 0 Z" class="logo-cutout" transform="translate(875.98,990.87)"/>
</svg>
