<?xml version="1.0" standalone="no"?>
<!DOCTYPE svg PUBLIC "-//W3C//DTD SVG 20010904//EN"
 "http://www.w3.org/TR/2001/REC-SVG-20010904/DTD/svg10.dtd">
<svg version="1.0" xmlns="http://www.w3.org/2000/svg"
 width="700.000000pt" height="700.000000pt" viewBox="0 0 700.000000 700.000000"
 preserveAspectRatio="xMidYMid meet">
<metadata>
Created by potrace 1.11, written by Peter Selinger 2001-2013
</metadata>
<g transform="translate(0.000000,700.000000) scale(0.100000,-0.100000)"
fill="#000000" stroke="none">
<path d="M603 6393 c-4 -1 -91 -3 -193 -5 -151 -4 -191 -7 -218 -21 -38 -20
-86 -84 -104 -136 -10 -28 -13 -628 -13 -2749 l-1 -2712 34 -61 c35 -62 53
-75 120 -84 128 -17 715 -20 3447 -20 2506 0 3059 3 3103 14 41 10 61 23 91
57 42 48 47 66 52 199 6 156 4 5114 -2 5252 -7 158 -19 181 -114 238 l-60 36
-3067 -3 c-1686 -1 -3070 -3 -3075 -5z m3764 -502 c76 -39 146 -141 145 -211
0 -20 -11 -61 -25 -91 -74 -167 -285 -203 -401 -67 -93 109 -71 275 47 351 77
50 160 56 234 18z m828 14 c100 -34 167 -123 168 -224 1 -136 -104 -242 -243
-243 -150 -2 -267 154 -228 302 19 70 100 156 163 173 31 8 106 4 140 -8z
m887 -9 c46 -20 111 -94 126 -144 35 -117 -24 -252 -130 -296 -53 -23 -165
-16 -210 12 -153 95 -160 298 -16 411 53 41 155 48 230 17z m383 -2857 c-2
-1079 -6 -1964 -8 -1966 -3 -2 -1334 -5 -2958 -8 l-2954 -4 1 1967 c1 1082 2
1968 3 1970 0 1 1333 2 2961 2 l2959 0 -4 -1961z"/>
<path d="M1369 4310 l-34 -28 -2 -220 c-2 -234 3 -272 39 -304 13 -11 34 -29
48 -41 14 -12 61 -51 105 -87 44 -35 85 -69 92 -75 21 -17 35 -28 163 -130 69
-55 134 -107 145 -118 11 -10 39 -33 62 -50 23 -18 43 -35 43 -39 0 -9 -92
-87 -316 -268 -98 -79 -225 -182 -282 -229 l-103 -85 1 -231 c1 -254 5 -272
66 -311 26 -17 28 -17 78 11 28 16 83 52 123 79 40 28 134 94 210 146 189 130
796 564 860 614 31 25 56 54 63 74 22 61 18 340 -5 412 -5 16 -126 110 -286
223 -337 238 -925 639 -977 666 -41 22 -59 20 -93 -9z"/>
<path d="M2685 2187 c-49 -48 -48 -43 -46 -207 2 -94 6 -107 44 -147 l31 -33
847 0 847 0 31 32 c39 40 44 60 44 163 -1 146 0 142 -44 190 l-42 45 -833 0
-834 0 -45 -43z"/>
</g>
</svg>
